<svg xmlns="http://www.w3.org/2000/svg" width="24.162" height="19.631" viewBox="0 0 24.162 19.631"><path d="M2.265,3.375A2.265,2.265,0,1,0,4.53,5.64,2.265,2.265,0,0,0,2.265,3.375Zm0,7.55A2.265,2.265,0,1,0,4.53,13.191,2.265,2.265,0,0,0,2.265,10.925Zm0,7.55A2.265,2.265,0,1,0,4.53,20.741,2.265,2.265,0,0,0,2.265,18.476Zm21.141.755H8.306a.755.755,0,0,0-.755.755V21.5a.755.755,0,0,0,.755.755h15.1a.755.755,0,0,0,.755-.755v-1.51A.755.755,0,0,0,23.407,19.231Zm0-15.1H8.306a.755.755,0,0,0-.755.755V6.4a.755.755,0,0,0,.755.755h15.1a.755.755,0,0,0,.755-.755V4.885A.755.755,0,0,0,23.407,4.13Zm0,7.55H8.306a.755.755,0,0,0-.755.755v1.51a.755.755,0,0,0,.755.755h15.1a.755.755,0,0,0,.755-.755v-1.51A.755.755,0,0,0,23.407,11.681Z" transform="translate(0 -3.375)" fill="#d9415d"/></svg>