<svg xmlns="http://www.w3.org/2000/svg" width="101.735" height="101.735" viewBox="0 0 101.735 101.735"><path d="M89.942,2.25H10.793A10.8,10.8,0,0,0,0,13.043V92.192a10.8,10.8,0,0,0,10.793,10.793H89.942a10.8,10.8,0,0,0,10.793-10.793V13.043A10.8,10.8,0,0,0,89.942,2.25ZM54.819,80.814c0,9.8-5.756,14.278-14.143,14.278-7.578,0-11.962-3.912-14.211-8.657l7.712-4.654c1.484,2.631,2.833,4.857,6.094,4.857,3.1,0,5.082-1.214,5.082-5.959V48.5h9.466Zm22.4,14.278c-8.792,0-14.481-4.182-17.246-9.669l7.713-4.452c2.024,3.305,4.677,5.756,9.331,5.756,3.912,0,6.431-1.956,6.431-4.677,0-3.238-2.563-4.385-6.9-6.3l-2.361-1.012c-6.836-2.9-11.355-6.566-11.355-14.278,0-7.105,5.419-12.5,13.851-12.5,6.026,0,10.343,2.091,13.446,7.578l-7.375,4.722c-1.619-2.9-3.373-4.047-6.094-4.047-2.766,0-4.52,1.754-4.52,4.047,0,2.833,1.754,3.98,5.824,5.756l2.361,1.012c8.05,3.44,12.569,6.97,12.569,14.885C92.887,90.415,86.187,95.092,77.215,95.092Z" transform="translate(0.5 -1.75)" fill="#fff" stroke="rgba(0,0,0,0.07)" stroke-width="1"/></svg>