<svg xmlns="http://www.w3.org/2000/svg" width="92.084" height="103.85" viewBox="0 0 92.084 103.85"><path d="M45.571,103.02a7.985,7.985,0,0,1-3.955-1.06L29.038,94.519c-1.876-1.06-.958-1.427-.347-1.631A24.777,24.777,0,0,0,34.379,90.3a.92.92,0,0,1,.938.082l9.663,5.728a1.18,1.18,0,0,0,1.162,0L83.795,74.377a1.207,1.207,0,0,0,.571-1.019V29.9a1.215,1.215,0,0,0-.591-1.04L46.142,7.145a1.18,1.18,0,0,0-1.162,0L7.368,28.876a1.19,1.19,0,0,0-.591,1.04V73.358a1.125,1.125,0,0,0,.591,1L17.683,80.31c5.606,2.793,9.031-.489,9.031-3.812V33.606a1.079,1.079,0,0,1,1.1-1.08h4.77a1.092,1.092,0,0,1,1.1,1.08V76.518c0,7.461-4.077,11.742-11.151,11.742-2.181,0-3.894,0-8.664-2.365L4,80.208a7.927,7.927,0,0,1-3.955-6.87V29.9A7.952,7.952,0,0,1,4,23.025L41.616,1.294a8.254,8.254,0,0,1,7.91,0L87.179,23.046a7.927,7.927,0,0,1,3.955,6.87V73.358a7.977,7.977,0,0,1-3.955,6.87L49.526,101.96a7.928,7.928,0,0,1-3.955,1.06Zm30.4-42.831c0-8.134-5.5-10.295-17.063-11.824-11.7-1.549-12.884-2.344-12.884-5.076,0-2.263,1-5.28,9.663-5.28,7.726,0,10.58,1.672,11.763,6.89a1.091,1.091,0,0,0,1.06.856H73.4a1.064,1.064,0,0,0,.8-.347,1.135,1.135,0,0,0,.285-.836c-.754-8.99-6.727-13.169-18.8-13.169-10.743,0-17.145,4.526-17.145,12.13,0,8.236,6.381,10.519,16.676,11.538,12.333,1.2,13.292,3.017,13.292,5.443,0,4.2-3.384,5.993-11.314,5.993-9.969,0-12.15-2.507-12.884-7.461a1.079,1.079,0,0,0-1.08-.917H38.354a1.075,1.075,0,0,0-1.08,1.08c0,6.34,3.445,13.9,19.937,13.9,11.905-.02,18.755-4.73,18.755-12.925Z" transform="translate(0.451 0.331)" fill="#fff" stroke="rgba(0,0,0,0.07)" stroke-width="1"/></svg>