<svg xmlns="http://www.w3.org/2000/svg" width="103.279" height="103.277" viewBox="0 0 103.279 103.277"><path d="M100.349,48.834,55.705,4.179a6.591,6.591,0,0,0-9.317,0l-9.283,9.276L48.868,25.216a7.826,7.826,0,0,1,9.906,9.972L70.111,46.526c7.815-2.694,13.967,7.077,8.1,12.942-6.048,6.048-16.029-.655-12.785-8.525L54.842,40.376V68.194c5.776,2.863,5.082,9.554,2.073,12.556A7.834,7.834,0,1,1,48.4,67.966V39.885a7.831,7.831,0,0,1-4.256-10.273L32.549,18,1.929,48.626a6.589,6.589,0,0,0,0,9.317L46.587,102.6a6.589,6.589,0,0,0,9.315,0l44.448-44.448a6.589,6.589,0,0,0,0-9.317Z" transform="translate(0.5 -1.75)" fill="#fff" stroke="rgba(0,0,0,0.07)" stroke-width="1"/></svg>