<svg xmlns="http://www.w3.org/2000/svg" width="111.548" height="97.769" viewBox="0 0 111.548 97.769"><path d="M90.3,33.6q-1.749-.583-3.5-1.1c.194-.8.367-1.6.54-2.4,2.656-12.868.907-23.211-4.988-26.622-5.679-3.26-14.941.13-24.312,8.291-.928.8-1.835,1.641-2.7,2.483-.583-.561-1.188-1.123-1.792-1.663C43.723,3.868,33.877.2,27.982,3.63c-5.657,3.282-7.341,13.02-4.966,25.2.238,1.209.5,2.4.8,3.606-1.382.389-2.742.82-4.016,1.274C8.27,37.7,0,44.006,0,50.527c0,6.737,8.809,13.495,20.793,17.6.972.324,1.943.648,2.936.928-.324,1.3-.6,2.569-.864,3.886-2.267,11.983-.5,21.483,5.16,24.744,5.83,3.368,15.632-.086,25.176-8.442.756-.669,1.511-1.36,2.267-2.094.95.928,1.943,1.814,2.936,2.677,9.241,7.946,18.374,11.163,24.01,7.9,5.83-3.368,7.73-13.581,5.268-26.018q-.291-1.425-.648-2.915c.691-.194,1.36-.41,2.03-.626,12.458-4.124,21.483-10.8,21.483-17.64,0-6.542-8.507-12.89-20.253-16.928ZM61.082,15.268c8.032-7,15.524-9.738,18.936-7.773,3.649,2.094,5.052,10.558,2.764,21.678-.151.734-.3,1.447-.5,2.159a110.531,110.531,0,0,0-14.531-2.289,109.09,109.09,0,0,0-9.2-11.465c.842-.8,1.663-1.555,2.526-2.31ZM36.1,61.732c1.1,1.878,2.224,3.757,3.411,5.592a97.77,97.77,0,0,1-10.018-1.619A100.863,100.863,0,0,1,33.013,56.1c.993,1.9,2.008,3.778,3.088,5.635ZM29.559,35.758c3.109-.691,6.413-1.252,9.846-1.684-1.144,1.792-2.267,3.627-3.325,5.484-1.058,1.835-2.094,3.714-3.066,5.614C31.653,41.955,30.509,38.8,29.559,35.758Zm5.916,14.876c1.425-2.98,2.98-5.894,4.621-8.766s3.411-5.657,5.268-8.4c3.239-.238,6.542-.367,9.91-.367s6.693.13,9.91.367q2.753,4.081,5.247,8.356t4.685,8.723q-2.17,4.469-4.664,8.809c-1.641,2.872-3.39,5.657-5.225,8.421-3.217.238-6.564.345-9.954.345s-6.672-.108-9.846-.3q-2.818-4.113-5.311-8.421c-1.663-2.872-3.2-5.786-4.642-8.766ZM74.469,61.689c1.1-1.9,2.138-3.822,3.152-5.765a100.232,100.232,0,0,1,3.649,9.565,94.838,94.838,0,0,1-10.148,1.727C72.288,65.4,73.389,63.546,74.469,61.689Zm3.109-16.517c-1.015-1.9-2.051-3.8-3.131-5.657q-1.587-2.753-3.3-5.441a99.36,99.36,0,0,1,9.91,1.727,95.553,95.553,0,0,1-3.476,9.371ZM55.317,20.882a94.814,94.814,0,0,1,6.391,7.73c-4.275-.194-8.572-.194-12.847,0C50.977,25.826,53.158,23.235,55.317,20.882ZM30.271,7.646c3.627-2.116,11.681.907,20.166,8.421.54.475,1.08.993,1.641,1.511a109.694,109.694,0,0,0-9.263,11.465,113.815,113.815,0,0,0-14.509,2.246c-.281-1.1-.518-2.224-.756-3.347-2.03-10.45-.691-18.331,2.721-20.3Zm-5.29,56.915c-.907-.259-1.792-.54-2.677-.842A44.036,44.036,0,0,1,8.7,56.982a9.688,9.688,0,0,1-4.059-6.456c0-3.951,6.823-9,16.669-12.437,1.231-.432,2.483-.82,3.735-1.188a114.811,114.811,0,0,0,5.29,13.732,118.023,118.023,0,0,0-5.355,13.926Zm25.176,21.16a39.519,39.519,0,0,1-12.178,7.622,9.556,9.556,0,0,1-7.622.281c-3.433-1.986-4.858-9.608-2.915-19.864.238-1.209.5-2.418.8-3.606A108.016,108.016,0,0,0,42.9,72.269,113.944,113.944,0,0,0,52.23,83.8C51.539,84.468,50.848,85.116,50.157,85.721Zm5.29-5.247c-2.2-2.375-4.4-5.009-6.542-7.838,2.073.086,4.21.13,6.369.13,2.224,0,4.4-.043,6.564-.151a93.112,93.112,0,0,1-6.391,7.859Zm28.22,6.477A9.6,9.6,0,0,1,80.1,93.709c-3.433,1.986-10.753-.6-18.655-7.384-.907-.777-1.814-1.619-2.742-2.483a106.809,106.809,0,0,0,9.112-11.573A106.438,106.438,0,0,0,82.544,70c.216.885.41,1.77.583,2.634a39.36,39.36,0,0,1,.54,14.315ZM87.6,63.74c-.6.194-1.209.389-1.835.561a109.685,109.685,0,0,0-5.506-13.775,109.137,109.137,0,0,0,5.29-13.581c1.123.324,2.2.669,3.239,1.015,10.062,3.455,17.122,8.593,17.122,12.523,0,4.232-7.535,9.695-18.31,13.257ZM55.274,60.5a9.889,9.889,0,1,0-9.889-9.889A9.887,9.887,0,0,0,55.274,60.5Z" transform="translate(0.5 -1.733)" fill="#fff" stroke="rgba(0,0,0,0.07)" stroke-width="1"/></svg>