<svg xmlns="http://www.w3.org/2000/svg" width="101.417" height="101.708" viewBox="0 0 101.417 101.708"><path d="M98.891,40.138C97.16,33.19,93.877,27.951,86.884,27.951H77.867V38.609a15.422,15.422,0,0,1-15.02,15.245H38.832a12.254,12.254,0,0,0-12.007,12.21v22.89c0,6.521,5.666,10.343,12.007,12.21a40.406,40.406,0,0,0,24.014,0C68.9,99.41,74.854,95.88,74.854,88.954V79.8H50.862V76.744H86.884c6.993,0,9.579-4.879,12.007-12.187,2.518-7.533,2.406-14.773,0-24.419ZM64.353,85.9a4.576,4.576,0,1,1-4.52,4.565A4.544,4.544,0,0,1,64.353,85.9ZM37.731,50.841H61.745a12.107,12.107,0,0,0,12.007-12.21V15.719c0-6.521-5.486-11.4-12.007-12.5a74.118,74.118,0,0,0-24.014.022c-10.163,1.8-12.007,5.554-12.007,12.5v9.152H49.76v3.058H16.707c-6.993,0-13.109,4.2-15.02,12.187C-.517,49.29-.607,55,1.687,64.557,3.4,71.663,7.465,76.744,14.458,76.744H22.71V65.772A15.268,15.268,0,0,1,37.731,50.841ZM36.224,18.777a4.576,4.576,0,1,1,4.52-4.565,4.544,4.544,0,0,1-4.52,4.565Z" transform="translate(0.281 -1.702)" fill="#fff" stroke="rgba(0,0,0,0.07)" stroke-width="1"/></svg>