<svg xmlns="http://www.w3.org/2000/svg" width="104.138" height="103.687" viewBox="0 0 104.138 103.687"><path d="M72.414,36.316a4.464,4.464,0,0,1,1.3.984L83.755,32.83l-9.374-9.284-2.1,12.632ZM51.572,27.879a5.581,5.581,0,0,1,.894,2.455L67.419,36.67a4.464,4.464,0,0,1,1.518-.757l2.455-15.181L62.284,11.18,51.572,27.652ZM102.6,51.359,86.573,35.332,75.677,39.8,102.463,51.18S102.69,51.359,102.6,51.359Zm-2.681,2.591L74.206,42.965a4.464,4.464,0,0,1-2.993,1.74L68.446,61.627a4.464,4.464,0,0,1,1.3,3.126l15.536,3.258,14.24-14.154v-.265ZM65.854,39.442,51.879,33.5a5.131,5.131,0,0,1-4.464,2.322h-.851L35,53.681,65.9,40.288v.043a3.793,3.793,0,0,1,0-.714.222.222,0,0,0-.043-.175ZM82.818,70.692,69.156,67.879a4.687,4.687,0,0,1-1.967,1.471L63.934,89.534l18.974-18.8s-.043.086-.09.086ZM63.708,69.307a4.464,4.464,0,0,1-2.634-3.036L35.63,61.045l-.359.582,23.083,33.4,1.381-1.386,3.93-24.246s.133.094.043.047ZM36.164,57.966,61.3,63.145a4.464,4.464,0,0,1,3.524-2.232l2.724-16.652-.577-.492L35.72,57.162a7.77,7.77,0,0,1,.445.8Zm-10.537,4.2-.535-.535L14.244,66.091l5.268,5.226L25.5,62.029Zm7.141,1.7a5.85,5.85,0,0,1-2.408.535,5.94,5.94,0,0,1-1.924-.312l-6.6,9.6,28.929,28.659,5.089-5.046ZM28.706,52.565a7.279,7.279,0,0,1,1.343,0,5.893,5.893,0,0,1,1.471,0l11.7-18.174a5.089,5.089,0,0,1-1.428-3.524,5.311,5.311,0,0,1,0-1.159l-14.2-6.564L16.164,34.263ZM30,20.913l13.842,5.893A5.311,5.311,0,0,1,47.415,25.6a5.8,5.8,0,0,1,1.7.269L59.915,8.99,50.986.061,30,20.643s-.043.222,0,.269ZM24.828,55.824A6.7,6.7,0,0,1,25.854,54.4L14.018,36.718,0,50.333l24.819,5.491Zm-1.12,2.993L2.279,54.344,11.7,63.9l11.875-5.046Z" transform="translate(1.014 0.642)" fill="#fff" stroke="rgba(0,0,0,0.07)" stroke-width="1"/></svg>