<svg xmlns="http://www.w3.org/2000/svg" width="88.532" height="88.29" viewBox="0 0 88.532 88.29"><path d="M84.431,9.3,66.415.633A5.449,5.449,0,0,0,60.2,1.69l-34.5,31.475L10.669,21.757a3.643,3.643,0,0,0-4.654.208L1.193,26.349a3.647,3.647,0,0,0,0,5.394l13.031,11.89L1.19,55.522a3.647,3.647,0,0,0,0,5.394L6.018,65.3a3.643,3.643,0,0,0,4.654.208L25.7,54.1,60.2,85.57a5.442,5.442,0,0,0,6.215,1.058l18.024-8.669a5.471,5.471,0,0,0,3.093-4.931v-58.8a5.471,5.471,0,0,0-3.1-4.931ZM65.663,63.5,39.484,43.632,65.663,23.763V63.5Z" transform="translate(0.5 0.514)" fill="#fff" stroke="rgba(0,0,0,0.07)" stroke-width="1"/></svg>