<svg xmlns="http://www.w3.org/2000/svg" width="103.5" height="97.212" viewBox="0 0 103.5 97.212"><path d="M21.041,2.616a2,2,0,0,0-3.779,0L5.964,37.569H32.359c-.02,0-11.318-34.953-11.318-34.953ZM.186,55.165a3.99,3.99,0,0,0,1.42,4.4l49.57,36.792L5.944,37.569Zm32.153-17.6L51.195,96.356,70.051,37.569Zm69.865,17.6-5.759-17.6L51.195,96.356l49.57-36.792a4,4,0,0,0,1.44-4.4ZM85.128,2.616a2,2,0,0,0-3.779,0L70.031,37.569H96.425Z" transform="translate(0.561 -0.781)" fill="#fff" stroke="rgba(0,0,0,0.07)" stroke-width="1"/></svg>